<svg version="1.2" xmlns="http://www.w3.org/2000/svg" viewBox="0 0 500 500" width="500" height="500"><style>.a{opacity:1;fill:#526658}.b{fill:#edba2e}.c{fill:#4b3501}.d{fill:#3d4a1e}</style><path class="a" d="m385.3 292.7c-6.5 0.3-7.3 0.5-7.3 2.3 0 1.5 0.7 2 2.7 2 1.6-0.1 3.4 0.5 4 1.2 0.9 0.9 1.2 5.1 1 14.8l-0.2 13.4c-6.1 1.3-7.5 2.2-7.5 3.1 0 1.3 2.1 1.5 12.5 1.5 10.4 0 12.5-0.2 12.5-1.5 0-1-1.3-1.7-3.5-2-2.5-0.4-3.8-1.2-4.5-3-0.6-1.4-1-9.2-1-17.5 0-8.2-0.3-14.9-0.8-14.8-0.4 0.1-4 0.3-8 0.5z"/><path class="a" d="m205.3 292.7c-6.5 0.3-7.3 0.5-7.3 2.3 0 1.5 0.7 2 2.7 2 1.6-0.1 3.4 0.5 4 1.2 0.9 0.9 1.2 5.1 1 14.8l-0.2 13.4c-6.1 1.3-7.5 2.2-7.5 3.1 0 1.3 2.1 1.5 13 1.5 10.9 0 13-0.2 13-1.5q0-1.5-4-2-4-0.5-5-2.5c-0.6-1.1-1-6.6-1-12.2 0-9.4 0.1-10.5 2.2-12.5 1.3-1.2 3.4-2.6 4.8-3.2 1.4-0.5 2.8-0.7 3.2-0.3 0.4 0.4 0.4 1.9 0 3.4-0.5 1.8-0.2 3.1 0.8 4.3 0.8 0.9 2.1 1.6 2.7 1.5 0.7 0 2.2-0.9 3.3-2 1.1-1.1 2-3.1 2-4.5 0-1.4-1.2-3.7-2.8-5.2-2.3-2.3-3.3-2.5-6.7-2-2.2 0.3-5.2 1.5-6.8 2.7l-2.7 2c0-3.9-0.3-4.9-0.8-4.8-0.4 0.1-4 0.3-8 0.5z"/><path class="a" d="m386 276.2c-0.8 0.7-1.3 2.3-1.2 3.8 0.1 1.4 0.7 3.1 1.4 3.8 0.7 0.7 2.5 1.2 4 1.2 1.5 0 3.4-0.7 4.2-1.5 0.9-0.8 1.6-2.4 1.6-3.5 0-1.1-0.7-2.7-1.5-3.5-0.8-0.8-2.8-1.5-4.3-1.5-1.5 0-3.4 0.5-4.2 1.2z"/><path class="b" d="m261.2 211.8c-1.8 1-3.9 2.6-4.5 3.6-1 1.4-0.9 1.7 0.8 1.6 1.1 0 4.4-0.8 7.2-1.8 2.9-0.9 5.4-2 5.5-2.5 0.2-0.4-1-1.2-2.5-1.7-1.5-0.6-2.8-1-2.9-1-0.2 0-1.8 0.8-3.6 1.8z"/><path class="b" d="m238 210c0 0.6 1.1 2.1 2.5 3.5 1.4 1.4 3.5 2.8 4.8 3.1 1.2 0.3 3.3 0.4 4.7 0.1 1.4-0.3 3.6-1.5 5-2.6l2.5-2c-8.9-0.1-13.2-0.8-15.3-1.6-2-0.9-3.8-1.5-3.9-1.5-0.2 0-0.3 0.4-0.3 1z"/><path class="b" d="m329.3 209.4c2.8 2.7 5.6 4.6 6.9 4.6 1.3 0 3-0.5 3.8-1.1 1.3-0.9 1.3-1.1 0-1.7-0.8-0.3-2.9-1.7-4.5-3.1-1.7-1.4-4.7-2.6-7-2.9l-4-0.4z"/><path class="b" d="m276.1 204.9c0 0.6 1.1 2 2.6 3 1.6 1 4.8 2.4 7.3 3.1 2.5 0.7 5.5 1.9 6.7 2.6 2.1 1.2 2.3 1.2 2.3-0.4 0-0.9-1.3-3.3-2.9-5.2-2.7-3.2-3.4-3.5-9.4-3.9-4.2-0.2-6.5 0-6.6 0.8z"/><path class="b" d="m216.5 204.6c0.4 1.6 1.1 4.3 1.4 5.9 0.3 1.7 1.8 4.6 3.3 6.5l2.8 3.5c0-8.3-0.7-11.1-2-13.2-1.1-1.8-3-3.8-4.1-4.4-2-1-2.1-0.9-1.4 1.7z"/><path class="b" d="m209.7 206.8c-0.3 2.6-1 4.9-1.6 5.2-0.6 0.3 0 2.6 1.4 5.7 1.4 2.9 2.8 5.1 3.3 4.9 0.4-0.2 1.3-2.3 2-4.7 0.9-2.7 1.1-5.8 0.7-7.9-0.4-1.9-1.3-4.5-2.1-5.8-0.8-1.2-1.8-2.2-2.3-2.2-0.5 0-1.1 2.1-1.4 4.7z"/><path class="b" d="m199 204.5c0 1.7 0.7 5.3 1.6 8 1.5 4.6 1.7 4.9 2.9 3 0.7-1.1 1.6-3.1 2-4.5 0.5-2-0.1-3.2-3-6l-3.5-3.5z"/><path class="b" d="m220.5 200c-0.3 0.6 0.4 2 1.4 3.3 1.1 1.2 2.6 3.8 3.4 5.7 0.8 1.9 2.6 4.3 4.1 5.3 1.4 0.9 2.8 1.4 3.1 1 0.3-0.5 0.2-1.9-0.1-3.3-0.3-1.4-1-3.6-1.4-5-0.5-1.4-2.6-3.7-4.7-5.2-2.1-1.5-4.1-2.8-4.5-2.8-0.4 0-0.9 0.4-1.3 1z"/><path class="b" d="m257.5 197.4l-6 2.3c5.9 2.9 8.5 3.3 12 3 2.8-0.3 7.2-1.3 9.8-2.3 4.3-1.7 4.6-2 3.2-3.4-1-0.9-3.8-1.6-7.3-1.7-4-0.2-7.5 0.5-11.7 2.1z"/><path class="b" d="m224.6 195c-0.3 0.5 0 1.7 0.7 2.6 0.6 0.9 2.9 2.5 5 3.5 2 1.1 5.3 1.9 7.2 1.9 1.9 0 3.5-0.3 3.5-0.8 0-0.4-1-1.7-2.2-2.8-1.3-1.2-3.2-2.6-4.3-3.1-1.1-0.6-3.6-1.3-5.7-1.7-2.1-0.4-3.9-0.2-4.2 0.4z"/><path class="b" d="m198 193.5c0 0.3 0.6 2 1.4 3.8 0.7 1.7 2.8 4.5 4.5 6.2 1.7 1.7 3.4 2.6 3.8 2.2 0.5-0.4 0.4-2.4-0.2-4.5-0.7-2.4-2.2-4.4-4.5-5.9-1.9-1.3-3.8-2.3-4.3-2.3-0.4 0-0.7 0.2-0.7 0.5z"/><path class="b" d="m307.4 192.6c-2.1 1.5-5 3.5-6.4 4.6-1.4 1-4.1 2.1-6 2.4-1.9 0.3-3.3 0.7-3 1 0.3 0.2 2.1 0.8 4 1.3 2.1 0.5 5.3 0.5 7.8 0 2.6-0.6 6.6-2.8 10.5-5.8 5.3-4.1 5.9-4.9 4.2-5.5-1.1-0.3-3.2-0.6-4.6-0.6-1.4 0-4.3 1.2-6.5 2.6z"/><path class="b" d="m359.5 191.9l-5 2.9c5.4 1.7 7.9 1.9 9 1.6 1.1-0.4 4-1.9 6.5-3.2 3.9-2.3 4.2-2.7 2.5-3.3-1.1-0.4-3.4-0.8-5-0.8-1.6 0-5.3 1.2-8 2.8z"/><path class="b" d="m227 190.3c0 0.6 2.6 2 5.8 3 3.1 0.9 6.5 1.7 7.5 1.7 0.9 0 2.4-0.2 3.2-0.5 0.8-0.3 1.5-0.9 1.5-1.5 0-0.6-1.3-1.7-3-2.5-1.7-0.8-5.7-1.5-9-1.5-4.1 0-6 0.4-6 1.2z"/><path class="b" d="m197.4 185.8c0.4 1.5 1.5 3.5 2.4 4.5 0.9 1 3.5 2.3 5.7 2.8 2.2 0.6 4.6 0.8 5.2 0.5 1-0.5 0.9-1.3-0.5-3.7-0.9-1.8-3.1-4-4.7-5-1.7-1.1-4.3-1.9-5.9-1.9-2.7 0-2.8 0.2-2.2 2.7z"/><path class="b" d="m301.5 183.6c-1.6 0.9-4.6 2.9-6.5 4.4-1.9 1.6-5.3 3.7-7.5 4.7l-4 1.8c7.8 0.5 11 0.4 12.3 0.1 1.2-0.3 4.3-2.5 6.9-4.9 2.7-2.4 5.8-4.6 7-5 1.3-0.4 2.3-1.1 2.3-1.7 0-0.6-1.7-1-3.8-1-2 0-5.1 0.7-6.7 1.6z"/><path class="b" d="m228.5 180.7c-0.5 0.3-0.8 1.5-0.7 2.5 0.1 1 1.3 2.3 2.7 2.8 1.4 0.6 3.5 1 4.8 1 1.2 0 3.9-0.5 6-1 2-0.6 3.7-1.4 3.7-2 0-0.5-1.6-1.7-3.5-2.5-1.9-0.8-5.4-1.5-7.8-1.5-2.4 0-4.7 0.3-5.2 0.7z"/><path class="b" d="m252.6 181.5c2.1 1.5 5.3 3.8 6.9 5 1.6 1.3 4.6 2.8 6.5 3.3 1.9 0.6 4.9 0.7 6.5 0.3l3-0.8c-3.9-1.2-7.4-3.4-10.4-5.7-4.5-3.4-6.4-4.2-10.9-4.5l-5.5-0.4z"/><path class="b" d="m287.5 175.7c-3.3 0.8-7.4 1.9-9 2.5-1.6 0.6-4.6 1.6-6.5 2.3l-3.5 1.4c5.8 2.4 9 3.1 10.8 3.1 1.8 0 4.9-1.1 7.2-2.6 2.2-1.4 5-3.9 6.2-5.5 1.3-1.6 1.9-2.8 1.5-2.8-0.4 0.1-3.4 0.8-6.7 1.6z"/><path class="b" d="m335.4 174.1c-2.2 0.9-5.1 3.1-6.6 4.8-1.6 1.7-2.8 3.5-2.8 4.1 0 0.6 1 0.7 2.3 0.4 1.2-0.3 3.5-1.4 5.1-2.3 1.6-0.9 3.8-2.7 4.8-4.1 1.1-1.4 1.8-3 1.5-3.6-0.3-0.7-1.7-0.5-4.3 0.7z"/><path class="b" d="m235.5 173c-1.1 0.5-3.2 0.9-4.8 0.9-2 0.1-2.6 0.6-2.5 1.8 0.3 1.4 1.5 1.8 6.3 1.9 3.3 0 7.2-0.5 8.8-1.2 1.5-0.8 2.7-1.8 2.7-2.4 0-0.6-1-1.2-2.3-1.5-1.2-0.3-3.1-0.4-4.2-0.4-1.1 0-2.9 0.4-4 0.9z"/><path class="b" d="m200.6 174.1c-1.6 1.1-2.7 2.9-2.7 4 0.1 1.5 0.9 1.9 4.2 1.9 3.2 0 4.7-0.6 7-3 1.6-1.6 2.9-3.4 2.9-4 0-0.6-2-1-4.3-1-2.9 0-5.3 0.7-7.1 2.1z"/><path class="b" d="m250.7 167.4l-2.9 1.3c5.2 0.8 8.5 2.2 10.7 3.7 2.7 1.7 5.3 2.6 8 2.6 2.2 0 4.7-0.4 5.5-0.9 1.1-0.6 0.1-1.7-4.5-4.5-4.3-2.6-7.1-3.6-10-3.6-2.2 0.1-5.3 0.7-6.8 1.4z"/><path class="b" d="m230.1 166c-2.6 1.1-4.3 2.5-4.2 3.5 0.1 1.1 1.3 1.5 4.9 1.5 3.5 0 5.8-0.7 9-2.7 2.3-1.6 4.2-3.1 4.2-3.5 0-0.5-2.1-0.8-4.7-0.8-2.7 0-6.8 0.9-9.2 2z"/><path class="c" d="m212 166.3c-1.3 1.3-2.3 2.6-2.2 3 0.1 0.4 1.3 0.7 2.7 0.7 1.4 0 2.7 0.3 3 0.7 0.3 0.5-0.9 2.7-2.5 5-1.7 2.4-4 4.8-5.3 5.4-2.2 1.1-2.2 1.1-0.2 2.3 1.1 0.7 3.2 3.5 4.8 6.2 1.5 2.7 2.6 5 2.5 5.2-0.2 0.1-1.8 0.6-3.7 1-3.2 0.7-3.3 0.8-1.8 2.4 0.9 1 3.1 1.8 4.8 1.8 2 0 4-1 5.8-2.8 1.6-1.5 3.6-5.2 4.5-8.2 0.9-3 1.6-6.4 1.6-7.5 0-1.1-0.7-4.3-1.5-7-0.8-2.8-2.3-6-3.3-7.2-0.9-1.2-2.8-2.5-4.2-2.8-1.9-0.4-3.2 0-5 1.8z"/><path class="b" d="m208.3 160c-2.4 1.1-5.2 3.2-6.3 4.8-1.2 1.5-2.1 3.5-2 4.5 0 0.9 0.3 1.7 0.7 1.7 0.5 0 2.6-1 4.8-2.3 2.1-1.2 5-3.8 6.2-5.7 1.3-1.9 2.3-3.8 2.3-4.3 0-0.4-0.3-0.7-0.8-0.7-0.4 0.1-2.6 1-5 2z"/><path class="b" d="m235.9 152.8c-0.8 0.3-4 3.2-7.2 6.6-3.2 3.3-5.5 6.3-5.2 6.6 0.3 0.3 2.9-0.7 5.8-2.1 3.9-2 5.7-3.7 7.2-6.8 1.1-2.2 1.7-4.2 1.4-4.4-0.3-0.2-1.2-0.2-2 0.1z"/><path class="d" d="m198.4 153.5c0.4 1.1 0.4 3.8 0.1 6l-0.7 4c-3.7-3.9-5-4.8-5.3-4.5-0.3 0.3-0.1 1.7 0.5 3.3 0.5 1.5 1 3.1 1 3.7 0 0.6-1 0.7-2.8 0.2-1.5-0.5-3.5-0.7-4.5-0.5-1.5 0.3-1.3 0.9 1.3 4.8 1.6 2.5 2.9 4.7 2.7 4.8-0.1 0.2-2.9 1.6-6.2 3.1-3.3 1.4-7.4 3.3-9 4.1-1.7 0.9-3.2 1.3-3.5 1-0.3-0.3 0.7-2.7 2.2-5.5 1.6-2.7 2.8-6.5 2.8-8.3 0-2.2-1-4.5-3.5-7.4-1.9-2.4-3.8-4.3-4.3-4.3-0.4 0-0.8 3.5-0.9 7.7-0.2 6.3 0.1 8.4 1.7 11.1 1.6 2.6 1.8 3.7 0.9 6-0.6 1.5-2.8 5-4.9 7.7-2 2.8-4.6 6.6-5.5 8.5-1 1.9-2.6 6-3.5 9l-1.7 5.5-6.3-14c3.9-3.5 4.8-5.2 4.5-6-0.3-0.8-1.6-1.5-3-1.5-1.4 0-4.2 0.8-6.3 1.9-2 1-5.8 3.5-8.5 5.5-2.6 2-4.9 3.5-5.2 3.4-0.3-0.2 1.2-1.9 3.3-3.8 2.1-1.9 5.2-4.5 6.8-5.7l2.9-2.1c-4.2-1.7-5.9-1.6-8-0.8-1.7 0.7-4.3 3.2-6 5.5-1.7 2.5-3.5 6.8-4.1 10-0.6 3.1-1 5.7-0.8 5.9 0.2 0.1 2.5-1.6 5.1-3.8 2.7-2.2 7.2-4.9 10-6 2.9-1.1 5.7-2 6.3-2 0.6 0 2.1 2.3 3.5 5 1.4 2.8 3.2 7.8 4 11.3 0.8 3.4 1.5 9 1.5 12.5 0 3.4 0.7 9.7 1.6 14 0.9 4.2 2.9 12 4.6 17.2 1.7 5.2 4 11.2 5.2 13.3 1.1 2 2.7 3.7 3.3 3.7 0.7 0 1.5-0.7 1.8-1.5 0.3-0.8-0.8-4.3-2.3-7.8-1.6-3.4-3.5-8-4.2-10.2-0.7-2.2-1.3-5.6-1.1-7.5 0.1-1.9 1.1-5.3 2.2-7.5 1-2.2 3-4.8 4.4-5.8 1.4-0.9 4-2 5.7-2.3 2.5-0.5 5.3 0.3 11.8 3.1 5.9 2.6 10 3.7 13.5 3.7 3.4 0.1 6.5-0.7 9.5-2.3 3.5-1.8 4.1-2.4 2.5-2.7-1.1-0.2-3.4-0.7-5-1.2-1.7-0.5-5-2.6-7.5-4.6-2.5-2-6.1-4.3-8-5.1-1.9-0.8-4.5-1.2-5.8-0.9-2 0.6-1.8 0.9 3 4.8 2.9 2.3 6.9 5 8.8 6 2.1 1 2.8 1.7 1.7 1.8-0.9 0-3.2-0.7-5-1.6-1.7-0.9-5-3.1-7.2-4.9-2.2-1.7-5-3.7-6.3-4.3-1.2-0.7-3.7-1.3-5.6-1.5-1.8-0.1-4 0.5-5 1.3-1 0.8-1.7 2.9-1.6 4.7 0 2.2-1.1 4.7-3.3 7.5-1.8 2.4-3.6 5-3.9 5.8-0.3 0.8-0.8 1.3-1.1 1-0.3-0.3-1-3.4-1.6-7-0.6-3.6-1.1-9.3-1.1-12.8 0-3.4 0.6-7.7 1.4-9.5 0.7-1.7 2.2-4 3.2-5 1.2-1.2 2.8-1.7 4.4-1.4 1.4 0.3 5.4 1.3 9 2.2 3.6 0.9 8.5 1.9 11 2.1l4.5 0.5c-4.7-2.5-7.8-5.3-10-7.7-3.3-3.6-4.6-4.4-7.8-4.4-2.8 0-4.2 0.6-6 2.7-1.2 1.6-3.4 3.6-5 4.5-2.6 1.7-2.7 1.7-2.7 0 0-0.9 1.3-4.4 2.9-7.7 1.5-3.3 4.5-7.7 6.5-9.8 2-2 5.6-4.6 8.1-5.7 3.7-1.6 5.2-1.8 8-1 1.9 0.6 3.5 1.4 3.5 2 0 0.6-0.7 2.3-1.5 4-0.8 1.7-2.3 3.4-3.3 3.9-1.5 0.8-1.4 1 0.8 1.6 1.4 0.4 3.5 0.2 4.7-0.4 1.5-0.7 2.5-0.8 2.8-0.1 0.3 0.6 0.2 2.5-0.1 4.3-0.4 1.7-1.1 3.8-1.8 4.5-0.8 1-0.8 1.3 0.1 1.2 0.7 0 2.2-1.2 3.4-2.7 1.7-2.3 1.9-3.7 1.4-7.3-0.3-2.5-0.8-7.4-0.9-11-0.2-3.6 0.1-7.6 0.7-9 0.6-1.4 1.1-3.6 1.2-5 0.1-1.4 1-4.1 2.1-6 1.4-2.5 1.8-4.6 1.4-7.2-0.3-2-1.1-4.2-1.9-5-1.1-1.1-1.2-1-0.7 0.7z"/><path class="b" d="m226.5 149.8c-2.4 1.7-4.4 4.3-5.1 6.3-0.6 1.9-1.4 4.2-1.8 5.1-0.3 1-0.2 1.8 0.4 1.8 0.6 0 2.5-1.1 4.3-2.4 1.7-1.3 4-4.1 5-6.2 1-2.2 1.7-4.7 1.5-5.7-0.3-1.7-0.7-1.6-4.3 1.1z"/><path class="b" d="m205.7 147.8c-1.5 3.1-2.7 7.2-2.7 8.9v3.3c5-2.5 6.8-3.8 7.2-4.4 0.4-0.6 0.8-2.9 0.8-5.1 0-2.2-0.2-5-0.4-6.3-0.1-1.2-0.7-2.2-1.2-2.2-0.6 0-2.2 2.6-3.7 5.7z"/><path class="b" d="m215.8 142.8c-0.9 1.5-1.9 4.9-2.4 7.7-0.6 4.2-0.5 4.8 0.7 3.8 0.8-0.7 1.7-1 2.1-0.5 0.4 0.4 0.4 2.2 0 4-0.4 1.8-0.4 3.2 0 3.2 0.5 0 1.3-1 2-2.3 0.6-1.2 1.5-4 1.9-6.2 0.3-2.2 0.2-5.6-0.3-7.5-0.5-1.9-1.3-3.8-1.7-4.2-0.4-0.4-1.4 0.5-2.3 2z"/><path fill-rule="evenodd" class="a" d="m443.2 273.2c0.4-0.1 0.9 11.8 1.3 53.2l3.8 0.8c2.3 0.5 3.7 1.4 3.7 2.3 0 1-1 1.5-2.7 1.5-1.6 0-5.2 0.4-13.3 1.5v-3c-0.1-2.6-0.2-2.8-1.3-1.4-0.7 0.9-2.2 2.1-3.4 2.7-1.3 0.7-4.3 1.2-6.8 1.2-2.5 0-5.9-0.7-7.5-1.5-1.6-0.8-4-3.2-5.2-5.2-1.5-2.6-2.3-6-2.6-10.8-0.3-4.8 0.1-8.3 1.1-11 0.9-2.2 3.2-5.5 5.1-7.2q3.6-3.3 7.9-3.9c2.3-0.3 5.3-0.3 6.7 0.1 1.4 0.4 3.3 1.5 4.4 2.4 1.8 1.5 1.8 1.3 1.5-6.2-0.3-6.5-0.8-8.1-2.4-9.3-1.1-0.8-3-1.4-4.2-1.4-1.6 0-2.2-0.5-2-1.7 0.2-1.5 1.6-1.9 7.7-2.4 4.1-0.3 7.8-0.6 8.2-0.7zm-25 32.4c-0.8 3-1.1 6.9-0.7 9.9 0.3 2.8 1.5 6.5 2.5 8.3 1.4 2.1 3 3.4 5 3.7 1.7 0.3 4.3-0.2 6-1 1.6-0.8 3.5-2.4 4-3.5 0.6-1.1 1-6.6 1-12.2 0.1-8.6-0.2-10.6-1.7-12-1-0.9-3.4-1.9-5.4-2.3-2.9-0.5-4.1-0.2-6.5 1.8-1.9 1.5-3.4 4.1-4.2 7.3z"/><path class="a" d="m-1 280.1c-0.8 0.6-1.1 1.2-0.5 1.5 0.5 0.2 2.1 1 3.5 1.7l2.5 1.3v41.8c-5.1 1.3-6.5 2.2-6.5 3.1 0 1.2 1.7 1.5 9.5 1.5 7.8 0 9.5-0.3 9.5-1.5 0-0.8-1.2-1.8-2.8-2.1-1.5-0.3-3.3-1.1-4-1.7-1-0.9-1.3-6.1-1.2-21.7l0.1-20.5c11.5 31 15.6 41.9 16.4 44.2 1 2.9 2.1 4.3 3.3 4.3 1.4 0 3.3-4.9 9.8-24.7l8.2-24.8c0.2 40.2 0.1 41.6-1.8 43.5-1.1 1.1-2.7 2-3.5 2-0.8 0-1.5 0.7-1.5 1.5 0 1.2 2 1.5 12 1.5 8.9 0 12-0.3 12-1.3 0-0.6-1.4-1.6-3.2-2-1.8-0.4-3.9-1.3-4.7-1.9-1-0.8-1.3-5.3-1.2-20.9 0.1-14.8 0.4-20.1 1.4-20.6 0.6-0.4 2.6-1 4.2-1.3 1.8-0.3 3.1-1.3 3.3-2.3 0.2-1.5-0.9-1.7-10-1.5l-10.2 0.3c-9.4 28.9-12.3 37.6-12.6 37.8-0.3 0.3-3.6-8.2-7.5-18.9l-7-19.4c-12.4 0-16.7 0.5-17.5 1.1z"/><path class="a" d="m320 281c0 1.5 0.7 2 2.5 2 1.5 0 3.2 1 4.3 2.3 0.9 1.3 5.8 12.4 10.7 24.6 7.5 18.4 9.3 22.1 10.8 21.9 1.4-0.2 4-5.5 10.5-21.4 4.8-11.6 9.5-22.2 10.4-23.7 1-1.5 3.2-3 4.8-3.5 2-0.4 3-1.3 3-2.5 0-1.5-1.2-1.7-11-1.7-10.3 0-11 0.1-11 2 0 1.5 0.7 2 2.5 2 1.4 0 3.2 0.7 4 1.5 0.8 0.8 1.5 2.3 1.5 3.2 0 1-2.8 8.8-6.1 17.3l-6.2 15.5c-9.7-24-12.8-32.2-13.1-33.8-0.5-2.3-0.2-2.8 2.1-3.3 1.6-0.3 3.4-0.8 4-1 0.7-0.2 1.3-1.1 1.3-1.9 0-1.3-2.1-1.5-12.5-1.5-11.8 0-12.5 0.1-12.5 2z"/><path fill-rule="evenodd" class="a" d="m90 292.5c3.2 0.3 6.5 1.2 8 2.3 1.4 1 3.5 3.4 4.8 5.3 1.2 1.9 2.5 5.4 2.9 7.9 0.3 2.5 0.1 7-0.6 10-0.7 3-2 6.6-3 8-1 1.4-3.6 3.3-5.7 4.4-2.9 1.4-5.5 1.8-10.1 1.5-4.1-0.3-7.1-1.1-9-2.5-1.5-1.1-3.8-4-5.1-6.5-1.6-3.2-2.2-6.1-2.2-10.9 0-4.3 0.7-7.9 1.9-10.5 1.1-2.2 3.2-4.9 4.8-5.9 1.5-1.1 3.9-2.3 5.3-2.7 1.4-0.5 5-0.6 8-0.4zm-9.6 8.8c-1.4 2.4-1.8 5.2-1.8 11.2 0 6.1 0.5 8.8 2 11.2 1 1.8 3.2 3.8 4.9 4.4 2.2 0.9 3.6 0.9 5.3 0 1.2-0.6 3.1-2.6 4.2-4.3 1.5-2.6 2-5.1 2-11 0-4.7-0.6-9.2-1.5-11.3-0.8-1.9-2.4-3.9-3.5-4.5-1.1-0.6-3-1-4.3-1-1.2 0-2.9 0.5-3.8 1.1-0.9 0.5-2.4 2.4-3.5 4.2z"/><path fill-rule="evenodd" class="a" d="m176.5 292.1c1.7 0 4.9 0.8 7.3 1.9 3 1.5 4.6 3 5.8 5.7 0.9 2.1 1.9 5.5 2.9 11.3h-26.5l0.6 4.2c0.3 2.4 1.4 5.6 2.3 7.3 1 1.8 3.1 3.4 5.1 4.1 2.2 0.7 4.6 0.8 6.5 0.3 1.7-0.5 4.2-2.3 5.7-4.1 2.3-2.8 3-3.1 4.3-2.1 1.3 1.2 1.3 1.7-0.7 4.5-1.3 1.8-3.6 4-5.3 5-2 1.2-5 1.8-9 1.8-4.6 0-6.8-0.5-9.5-2.2-1.9-1.3-4.5-4.3-5.8-6.8-1.6-3.2-2.2-6.2-2.2-10.5 0-3.9 0.8-7.6 2.1-10.5 1.1-2.5 3-5.2 4.2-6 1.1-0.8 3.7-2 5.7-2.7 1.9-0.6 4.8-1.2 6.5-1.2zm-9.6 12.5c0.1 2.3 0.3 2.4 8.1 2.4h8c0.1-4.3-0.8-6.7-2-8.3-1.5-2-2.8-2.7-5.4-2.7-2.6 0-4.1 0.8-6.1 3.1-1.5 1.7-2.7 4.1-2.6 5.5z"/><path fill-rule="evenodd" class="a" d="m276 292c2.5 0 6.1 0.8 8 1.8 2.4 1.1 3.9 2.8 4.7 5.2 0.7 1.9 1.2 9 1.2 15.8 0.1 9.9 0.4 12.3 1.6 12.9 0.9 0.5 2.1 0.3 2.7-0.5 0.7-0.6 1.8-1.2 2.5-1.2 0.7 0 1.3 0.8 1.3 1.7-0.1 1-0.8 2.3-1.8 3-0.9 0.7-3.8 1.3-6.5 1.3-4 0-5-0.4-6.7-2.8-1.2-1.5-2-2.3-2-1.7 0 0.6-1.3 1.8-3 2.7-1.8 1.1-5.1 1.8-8 1.8-3.9 0-5.6-0.6-7.8-2.4-2.2-2-2.7-3.3-2.7-7 0-3.2 0.6-5.1 2-6.6 1.1-1.1 6.1-3.5 20-8.5l0.2-3.8c0.2-2.6-0.3-4.3-1.7-5.7-1.3-1.3-3.4-2-5.8-2-2.2-0.1-4.2 0.5-5 1.5-1 1.2-1 1.9 0 3.5 1 1.5 1 2.5 0.2 3.8-0.6 0.9-2.2 1.8-3.5 2-1.3 0.1-3-0.3-3.7-1-0.7-0.7-1.3-2.7-1.3-4.3 0-1.6 0.8-3.8 1.8-4.7 1-0.9 3.4-2.4 5.3-3.2 1.9-0.8 5.5-1.5 8-1.6zm-1 22.3c-6.1 3-6.5 3.4-6.8 6.9-0.2 3.1 0.2 4 2 4.9 1.3 0.6 3.4 0.9 4.8 0.6 1.4-0.3 3.5-1.4 4.8-2.4 2-1.6 2.3-2.5 2-7.5l-0.3-5.7z"/><path fill-rule="evenodd" class="a" d="m474 292c2.5 0 6.1 0.8 8 1.8 2.4 1.1 3.9 2.8 4.7 5.2 0.7 1.9 1.2 9 1.2 15.8 0.1 9.9 0.4 12.3 1.6 12.9 0.9 0.5 2.1 0.3 2.7-0.5 0.7-0.6 1.8-1.2 2.5-1.2 0.7 0 1.3 0.8 1.3 1.7-0.1 1-0.8 2.3-1.8 3-0.9 0.7-3.8 1.3-6.5 1.3-4 0-5-0.4-6.7-2.8-1.2-1.5-2-2.3-2-1.7 0 0.6-1.3 1.8-3 2.7-1.8 1.1-5.1 1.8-8 1.8-3.9 0-5.6-0.6-7.8-2.4-2.2-2-2.7-3.3-2.7-7 0-3.2 0.6-5.1 2-6.6 1.1-1.1 6.1-3.5 20-8.5l0.2-3.8c0.2-2.6-0.3-4.3-1.7-5.7-1.3-1.3-3.4-2-5.8-2-2.2-0.1-4.2 0.5-5 1.5-1 1.2-1 1.9 0 3.5 1 1.5 1 2.5 0.2 3.8-0.6 0.9-2.2 1.8-3.5 2-1.3 0.1-3-0.3-3.7-1-0.7-0.7-1.3-2.7-1.3-4.3 0-1.6 0.8-3.8 1.8-4.7 1-0.9 3.4-2.4 5.3-3.2 1.9-0.8 5.5-1.5 8-1.6zm-1 22.3c-6.1 3-6.5 3.4-6.8 6.9-0.2 3.1 0.2 4 2 4.9 1.3 0.6 3.4 0.9 4.8 0.6 1.4-0.3 3.5-1.4 4.8-2.4 2-1.6 2.3-2.5 2-7.5l-0.3-5.7z"/><path class="a" d="m110 294.8c0 0.9 1.2 2.2 2.7 2.7 2.4 0.9 4 3.7 10.3 17.8 4.9 10.9 8 16.8 9 16.8 1 0 3.6-5.2 7.8-15.3 3.5-8.4 7.3-16.3 8.5-17.6 1.2-1.2 3-2.2 3.9-2.2 1.1 0 1.8-0.8 1.8-2 0-1.8-0.7-2-8.5-2-7.8 0-8.5 0.2-8.5 2 0 1.2 0.8 2.2 2 2.5q2 0.5 2 3c0 1.4-1.5 6.3-3.3 11-1.7 4.7-3.4 8.5-3.7 8.5-0.3 0-2.4-4.6-4.8-10.3-2.4-5.6-4.1-10.8-3.8-11.5 0.3-0.6 1.5-1.2 2.6-1.2q2 0 2-2c0-1.9-0.7-2-10-2-8.9 0-10 0.2-10 1.7z"/></svg>